<svg width="25" height="25" viewBox="0 0 25 25" fill="none" xmlns="http://www.w3.org/2000/svg">
<path d="M16.4969 1.6499C18.0996 1.6499 19.6382 2.29367 20.7733 3.44092C21.9085 4.58836 22.5477 6.14579 22.5477 7.771C22.5477 9.3962 21.9085 10.9536 20.7733 12.1011C19.6382 13.2483 18.0996 13.8921 16.4969 13.8921C14.8944 13.892 13.3565 13.2482 12.2215 12.1011C11.0863 10.9536 10.4471 9.39625 10.4471 7.771C10.4471 6.14575 11.0863 4.58837 12.2215 3.44092C13.3565 2.29376 14.8944 1.65001 16.4969 1.6499Z" stroke="#707070" stroke-width="1.1"/>
<path d="M14.25 18.5245C14.1685 18.5569 14.0851 18.5844 14.0003 18.6068L13.9629 18.7669C13.6095 19.8411 12.9915 20.8068 12.1669 21.573C11.3424 22.3392 10.3385 22.8807 9.24978 23.1466C8.16104 23.4124 7.02329 23.3938 5.94362 23.0925C4.86396 22.7913 3.87791 22.2172 3.07832 21.4245C2.27872 20.6317 1.69188 19.6464 1.37305 18.5611C1.05422 17.4759 1.01389 16.3265 1.25585 15.2211C1.49781 14.1157 2.0141 13.0908 2.75612 12.2428C3.49814 11.3948 4.44148 10.7516 5.49731 10.3738L5.77231 10.2948C5.77231 10.2948 5.80201 10.1681 5.86691 10.0202M18.65 14.0772C18.5685 14.1097 18.4851 14.1371 18.4003 14.1595L18.3629 14.3196C18.0095 15.3939 17.3915 16.3596 16.5669 17.1258C15.7424 17.892 14.7385 18.4335 13.6498 18.6993C12.561 18.9651 11.4233 18.9465 10.3436 18.6453C9.26396 18.344 8.27791 17.77 7.47832 16.9772C6.67872 16.1845 6.09188 15.1991 5.77305 14.1138C5.45422 13.0286 5.41389 11.8792 5.65585 10.7738C5.89781 9.66848 6.4141 8.64355 7.15612 7.79553C7.89814 6.94752 8.84148 6.30432 9.89731 5.9265L10.1723 5.84756C10.1723 5.84756 10.202 5.72081 10.2669 5.57294M23.0973 7.771C23.0973 9.54024 22.402 11.237 21.1642 12.488C19.9265 13.7391 18.2477 14.4419 16.4973 14.4419C14.7469 14.4419 13.0681 13.7391 11.8304 12.488C10.5927 11.237 9.89731 9.54024 9.89731 7.771C9.89731 6.00177 10.5927 4.305 11.8304 3.05396C13.0681 1.80292 14.7469 1.1001 16.4973 1.1001C18.2477 1.1001 19.9265 1.80292 21.1642 3.05396C22.402 4.305 23.0973 6.00177 23.0973 7.771Z" stroke="#707070" stroke-width="2.2" stroke-linecap="square"/>
</svg>
