<svg width="22" height="23" viewBox="0 0 22 23" fill="none" xmlns="http://www.w3.org/2000/svg">
<path d="M0 22.2363V2.22363C0 1.61214 0.2156 1.08884 0.6468 0.653749C1.078 0.218657 1.59573 0.000741212 2.2 0H19.8C20.405 0 20.9231 0.217916 21.3543 0.653749C21.7855 1.08958 22.0007 1.61288 22 2.22363V15.5654C22 16.1769 21.7848 16.7006 21.3543 17.1364C20.9238 17.5723 20.4057 17.7898 19.8 17.7891H4.4L0 22.2363ZM4.4 13.3418H13.2V11.1182H4.4V13.3418ZM4.4 10.0064H17.6V7.78272H4.4V10.0064ZM4.4 6.6709H17.6V4.44727H4.4V6.6709Z" fill="white"/>
</svg>
