<svg width="29" height="24" viewBox="0 0 29 24" fill="none" xmlns="http://www.w3.org/2000/svg">
<path d="M5.8 24V21.3333L7.25 20H2.9C2.1025 20 1.42003 19.7391 0.8526 19.2173C0.285167 18.6956 0.000966667 18.0676 0 17.3333V2.66667C0 1.93333 0.2842 1.30578 0.8526 0.784C1.421 0.262222 2.10347 0.000888889 2.9 0H26.1C26.8975 0 27.5804 0.261333 28.1488 0.784C28.7172 1.30667 29.001 1.93422 29 2.66667V17.3333C29 18.0667 28.7163 18.6947 28.1488 19.2173C27.5814 19.74 26.8985 20.0009 26.1 20H21.75L23.2 21.3333V24H5.8ZM2.9 17.3333H26.1V2.66667H2.9V17.3333Z" fill="white"/>
</svg>
