<svg width="120" height="90" viewBox="0 0 120 90" fill="none" xmlns="http://www.w3.org/2000/svg">
<path fill-rule="evenodd" clip-rule="evenodd" d="M35 20C31.0218 20 27.2064 21.5804 24.3934 24.3934C21.5804 27.2064 20 31.0218 20 35C20 38.9782 21.5804 42.7936 24.3934 45.6066C27.2064 48.4196 31.0218 50 35 50C38.9782 50 42.7936 48.4196 45.6066 45.6066C48.4196 42.7936 50 38.9782 50 35C50 31.0218 48.4196 27.2064 45.6066 24.3934C42.7936 21.5804 38.9782 20 35 20ZM30 35C30 33.6739 30.5268 32.4021 31.4645 31.4645C32.4021 30.5268 33.6739 30 35 30C36.3261 30 37.5979 30.5268 38.5355 31.4645C39.4732 32.4021 40 33.6739 40 35C40 36.3261 39.4732 37.5979 38.5355 38.5355C37.5979 39.4732 36.3261 40 35 40C33.6739 40 32.4021 39.4732 31.4645 38.5355C30.5268 37.5979 30 36.3261 30 35Z" fill="#2C3245"/>
<path fill-rule="evenodd" clip-rule="evenodd" d="M15 0C11.0218 0 7.20644 1.58035 4.3934 4.3934C1.58035 7.20644 0 11.0218 0 15L0 75C0 78.9782 1.58035 82.7936 4.3934 85.6066C7.20644 88.4197 11.0218 90 15 90H105C108.978 90 112.794 88.4197 115.607 85.6066C118.42 82.7936 120 78.9782 120 75V15C120 11.0218 118.42 7.20644 115.607 4.3934C112.794 1.58035 108.978 0 105 0H15ZM105 10H15C13.6739 10 12.4021 10.5268 11.4645 11.4645C10.5268 12.4021 10 13.6739 10 15V75C10 76.3261 10.5268 77.5979 11.4645 78.5355C12.4021 79.4732 13.6739 80 15 80H36.57L70.96 45.605C72.3529 44.2119 74.0066 43.1067 75.8267 42.3528C77.6467 41.5988 79.5975 41.2107 81.5675 41.2107C83.5375 41.2107 85.4883 41.5988 87.3083 42.3528C89.1284 43.1067 90.7821 44.2119 92.175 45.605L110 63.43V15C110 13.6739 109.473 12.4021 108.536 11.4645C107.598 10.5268 106.326 10 105 10ZM105 80H50.71L78.035 52.68C78.9726 51.7426 80.2442 51.2161 81.57 51.2161C82.8958 51.2161 84.1674 51.7426 85.105 52.68L109.535 77.11C109.133 77.9737 108.493 78.7046 107.689 79.2166C106.886 79.7286 105.953 80.0004 105 80Z" fill="#2C3245"/>
</svg>
