<svg width="32" height="25" viewBox="0 0 32 25" fill="none" xmlns="http://www.w3.org/2000/svg">
<path d="M4.15 18.85H3.425C2.84815 18.85 2.29493 19.0818 1.88704 19.4944C1.47915 19.9069 1.25 20.4665 1.25 21.05C1.25 21.6335 1.47915 22.1931 1.88704 22.6056C2.29493 23.0182 2.84815 23.25 3.425 23.25H28.075C28.6518 23.25 29.2051 23.0182 29.613 22.6056C30.0208 22.1931 30.25 21.6335 30.25 21.05C30.25 20.4665 30.0208 19.9069 29.613 19.4944C29.2051 19.0818 28.6518 18.85 28.075 18.85H27.35M4.15 18.85H27.35M4.15 18.85V5.94333C4.15 4.30067 4.15 3.47933 4.4661 2.8516C4.7445 2.29867 5.18675 1.85133 5.7334 1.56973C6.354 1.25 7.166 1.25 8.79 1.25H22.71C24.334 1.25 25.146 1.25 25.7652 1.56973C26.3118 1.85133 26.7555 2.29867 27.0339 2.8516C27.35 3.47787 27.35 4.2992 27.35 5.93893V18.85" stroke="#707070" stroke-width="2.5" stroke-linecap="round" stroke-linejoin="round"/>
</svg>
