<svg width="16" height="24" viewBox="0 0 16 24" fill="none" xmlns="http://www.w3.org/2000/svg">
<path d="M13.3333 0H2.66667C1.95942 0 1.28115 0.252856 0.781048 0.702944C0.280951 1.15303 0 1.76348 0 2.4V21.6C0 22.2365 0.280951 22.847 0.781048 23.2971C1.28115 23.7471 1.95942 24 2.66667 24H13.3333C14.0406 24 14.7189 23.7471 15.219 23.2971C15.719 22.847 16 22.2365 16 21.6V2.4C16 1.76348 15.719 1.15303 15.219 0.702944C14.7189 0.252856 14.0406 0 13.3333 0ZM9.33333 22.8H6.66667V21.6H9.33333V22.8ZM13.3333 20.4H2.66667V3.6H13.3333V20.4Z" fill="#707070"/>
</svg>
