<svg width="23" height="23" viewBox="0 0 23 23" fill="none" xmlns="http://www.w3.org/2000/svg">
<path d="M8.03 22.2363L7.59 18.6785C7.35167 18.5859 7.12727 18.4747 6.9168 18.345C6.70633 18.2153 6.4999 18.0763 6.2975 17.9281L3.025 19.3178L0 14.0367L2.8325 11.8687C2.81417 11.7389 2.805 11.614 2.805 11.494V10.7435C2.805 10.6227 2.81417 10.4974 2.8325 10.3677L0 8.19965L3.025 2.91852L6.2975 4.30829C6.49917 4.16005 6.71 4.02107 6.93 3.89136C7.15 3.76165 7.37 3.65047 7.59 3.55782L8.03 0H14.08L14.52 3.55782C14.7583 3.65047 14.9831 3.76165 15.1943 3.89136C15.4055 4.02107 15.6116 4.16005 15.8125 4.30829L19.085 2.91852L22.11 8.19965L19.2775 10.3677C19.2958 10.4974 19.305 10.6227 19.305 10.7435V11.4929C19.305 11.6137 19.2867 11.7389 19.25 11.8687L22.0825 14.0367L19.0575 19.3178L15.8125 17.9281C15.6108 18.0763 15.4 18.2153 15.18 18.345C14.96 18.4747 14.74 18.5859 14.52 18.6785L14.08 22.2363H8.03ZM11.11 15.0095C12.1733 15.0095 13.0808 14.6297 13.8325 13.8699C14.5842 13.1102 14.96 12.1929 14.96 11.1182C14.96 10.0434 14.5842 9.12617 13.8325 8.36643C13.0808 7.60668 12.1733 7.22681 11.11 7.22681C10.0283 7.22681 9.11607 7.60668 8.3732 8.36643C7.63033 9.12617 7.25927 10.0434 7.26 11.1182C7.26073 12.1929 7.63217 13.1102 8.3743 13.8699C9.11643 14.6297 10.0283 15.0095 11.11 15.0095Z" fill="#707070"/>
</svg>
